<svg xmlns="http://www.w3.org/2000/svg" width="20" height="21" viewBox="0 0 20 21" fill="none"><path d="M11.1753 10.5389L15.5919 6.13056C15.7489 5.97364 15.837 5.76081 15.837 5.53889C15.837 5.31697 15.7489 5.10414 15.5919 4.94722C15.435 4.79031 15.2222 4.70215 15.0003 4.70215C14.7784 4.70215 14.5655 4.79031 14.4086 4.94722L10.0003 9.36389L5.59194 4.94722C5.43502 4.79031 5.22219 4.70215 5.00027 4.70215C4.77836 4.70215 4.56553 4.79031 4.40861 4.94722C4.25169 5.10414 4.16353 5.31697 4.16353 5.53889C4.16353 5.76081 4.25169 5.97364 4.40861 6.13056L8.82527 10.5389L4.40861 14.9472C4.3305 15.0247 4.26851 15.1169 4.2262 15.2184C4.18389 15.32 4.16211 15.4289 4.16211 15.5389C4.16211 15.6489 4.18389 15.7578 4.2262 15.8594C4.26851 15.9609 4.3305 16.0531 4.40861 16.1306C4.48608 16.2087 4.57824 16.2707 4.67979 16.313C4.78134 16.3553 4.89026 16.3771 5.00027 16.3771C5.11028 16.3771 5.21921 16.3553 5.32076 16.313C5.4223 16.2707 5.51447 16.2087 5.59194 16.1306L10.0003 11.7139L14.4086 16.1306C14.4861 16.2087 14.5782 16.2707 14.6798 16.313C14.7813 16.3553 14.8903 16.3771 15.0003 16.3771C15.1103 16.3771 15.2192 16.3553 15.3208 16.313C15.4223 16.2707 15.5145 16.2087 15.5919 16.1306C15.67 16.0531 15.732 15.9609 15.7744 15.8594C15.8167 15.7578 15.8384 15.6489 15.8384 15.5389C15.8384 15.4289 15.8167 15.32 15.7744 15.2184C15.732 15.1169 15.67 15.0247 15.5919 14.9472L11.1753 10.5389Z" fill="black"></path></svg>