<svg xmlns="http://www.w3.org/2000/svg" width="10" height="6" viewBox="0 0 10 6" fill="none"><path d="M4.99978 5.6367C4.92301 5.63715 4.84691 5.62243 4.77584 5.59341C4.70477 5.56438 4.64012 5.5216 4.58562 5.46754L1.08562 1.96754C1.03123 1.91315 0.988083 1.84858 0.958648 1.77752C0.929213 1.70645 0.914063 1.63029 0.914062 1.55337C0.914062 1.47645 0.929213 1.40029 0.958648 1.32923C0.988083 1.25816 1.03123 1.19359 1.08562 1.13921C1.14001 1.08482 1.20457 1.04167 1.27564 1.01224C1.3467 0.982802 1.42286 0.967651 1.49978 0.967651C1.5767 0.967651 1.65287 0.982802 1.72393 1.01224C1.79499 1.04167 1.85956 1.08482 1.91395 1.13921L4.99978 4.23087L8.08562 1.13921C8.19546 1.02936 8.34444 0.967651 8.49978 0.967651C8.65513 0.967651 8.80411 1.02936 8.91395 1.13921C9.02379 1.24905 9.0855 1.39803 9.0855 1.55337C9.0855 1.70871 9.02379 1.85769 8.91395 1.96754L5.41395 5.46754C5.35944 5.5216 5.2948 5.56438 5.22373 5.59341C5.15266 5.62243 5.07655 5.63715 4.99978 5.6367Z" fill="white"></path></svg>