<svg width="20" height="20" viewBox="0 0 20 20" fill="none" xmlns="http://www.w3.org/2000/svg">
<path d="M18.2998 14.1449V16.6539C18.3007 16.8868 18.253 17.1174 18.1597 17.3308C18.0664 17.5442 17.9296 17.7358 17.7579 17.8932C17.5862 18.0507 17.3836 18.1706 17.163 18.2451C16.9424 18.3198 16.7085 18.3475 16.4765 18.3265C13.903 18.0469 11.431 17.1675 9.25898 15.759C7.23825 14.475 5.52503 12.7617 4.24097 10.741C2.82754 8.55916 1.94794 6.07507 1.67342 3.48996C1.65251 3.25868 1.68 3.02559 1.75412 2.80552C1.82824 2.58545 1.94737 2.38322 2.10393 2.21171C2.26049 2.04021 2.45104 1.90318 2.66346 1.80936C2.87588 1.71553 3.10551 1.66696 3.33773 1.66674H5.84674C6.25261 1.66274 6.6461 1.80648 6.95385 2.07114C7.26159 2.33579 7.4626 2.70333 7.5194 3.10524C7.6253 3.90818 7.8217 4.69656 8.10484 5.45534C8.21737 5.75469 8.24172 6.08001 8.17501 6.39278C8.10831 6.70554 7.95335 6.99262 7.72849 7.22001L6.66634 8.28216C7.85692 10.376 9.59053 12.1096 11.6843 13.3002L12.7465 12.238C12.9739 12.0131 13.261 11.8582 13.5737 11.7915C13.8865 11.7248 14.2119 11.7492 14.5112 11.8617C15.2699 12.1448 16.0583 12.3412 16.8613 12.4471C17.2676 12.5044 17.6386 12.7091 17.9038 13.0221C18.1691 13.3351 18.3099 13.7347 18.2998 14.1449Z" stroke="white" stroke-width="1.5" stroke-linecap="round" stroke-linejoin="round"/>
</svg>
