<svg width="20" height="20" viewBox="0 0 20 20" fill="none" xmlns="http://www.w3.org/2000/svg">
<path d="M3.3332 7.37384C3.3332 3.75049 6.4651 0.833328 10.3055 0.833328C14.1459 0.833328 17.2778 3.75049 17.2778 7.37384C17.2778 9.674 15.2505 13.4082 11.2 18.7237C10.8235 19.2176 10.1179 19.3129 9.6239 18.9365C9.54374 18.8754 9.47215 18.8038 9.41106 18.7237C5.36052 13.4082 3.3332 9.674 3.3332 7.37384ZM15.9284 7.37384C15.9284 4.51804 13.4212 2.18281 10.3055 2.18281C7.18982 2.18281 4.68268 4.51804 4.68268 7.37384C4.68268 9.2392 6.55565 12.7181 10.3055 17.6702C14.0554 12.7181 15.9284 9.2392 15.9284 7.37384Z" fill="white"/>
<path d="M10.3056 10.4596C8.6908 10.4596 7.38174 9.15052 7.38174 7.53571C7.38174 5.92089 8.6908 4.61183 10.3056 4.61183C11.9204 4.61183 13.2295 5.92089 13.2295 7.53571C13.2295 9.15052 11.9204 10.4596 10.3056 10.4596ZM10.3056 9.1101C11.1751 9.1101 11.88 8.40522 11.88 7.53571C11.88 6.66619 11.1751 5.96131 10.3056 5.96131C9.4361 5.96131 8.73122 6.66619 8.73122 7.53571C8.73122 8.40522 9.4361 9.1101 10.3056 9.1101Z" fill="white"/>
</svg>
