<svg xmlns="http://www.w3.org/2000/svg" width='24' heigth='24' viewBox="0 0 25 24" fill="none">
<path d="M22.8966 15.4853C20.0568 13.6955 16.7875 12.741 13.4466 12.741H13.3273C9.9625 12.741 6.69318 13.6955 3.87727 15.4853C3.23295 15.8671 2.875 16.5353 2.875 17.2751V19.3989C2.875 20.5682 3.80568 21.5228 4.975 21.5228H21.775C22.9205 21.5228 23.875 20.5682 23.875 19.3989V17.2751C23.875 16.5353 23.517 15.8671 22.8966 15.4853ZM21.9659 19.3989C21.9659 19.5182 21.8705 19.6137 21.775 19.6137H4.975C4.87955 19.6137 4.78409 19.5182 4.78409 19.3989V17.2751C4.78409 17.2035 4.83182 17.1319 4.87955 17.0842C7.40909 15.4853 10.3205 14.6501 13.3034 14.6501H13.4227C16.4057 14.6501 19.3409 15.4853 21.8466 17.108C21.8943 17.1557 21.942 17.2035 21.942 17.2989V19.3989H21.9659Z" fill='#333333'></path>
<path d="M9.08008 5.29545V7.68182C9.08008 10.0443 11.013 11.9773 13.3755 11.9773C15.738 11.9773 17.671 10.0443 17.671 7.68182V5.29545C17.671 2.93295 15.738 1 13.3755 1C11.013 1 9.08008 2.93295 9.08008 5.29545ZM15.7619 5.29545V7.68182C15.7619 8.99432 14.688 10.0682 13.3755 10.0682C12.063 10.0682 10.9892 8.99432 10.9892 7.68182V5.29545C10.9892 3.98295 12.063 2.90909 13.3755 2.90909C14.688 2.90909 15.7619 3.98295 15.7619 5.29545Z" fill="#333333"></path></svg>