<svg width="25" height="24" viewBox="0 0 25 24" fill="none" xmlns="http://www.w3.org/2000/svg">
<path d="M12.1103 21.2299H11.8903C11.6868 21.1977 11.4982 21.1034 11.3503 20.9599L3.66034 13.2599C2.68093 12.2098 2.14749 10.8205 2.17247 9.38479C2.19745 7.94908 2.77891 6.57916 3.79426 5.5638C4.80961 4.54845 6.17954 3.96699 7.61525 3.94201C9.05095 3.91703 10.4403 4.45047 11.4903 5.42988L12.1103 5.99988L12.7103 5.39988C13.7517 4.36725 15.1588 3.78784 16.6253 3.78784C18.0919 3.78784 19.499 4.36725 20.5403 5.39988C21.5778 6.43864 22.1606 7.84675 22.1606 9.31488C22.1606 10.783 21.5778 12.1911 20.5403 13.2299L12.8403 20.9299C12.7454 21.0268 12.6317 21.1034 12.5062 21.1549C12.3807 21.2065 12.246 21.232 12.1103 21.2299ZM7.55034 5.78988C6.85923 5.79873 6.18582 6.0097 5.6132 6.39676C5.04058 6.78383 4.59379 7.33005 4.32795 7.96805C4.06212 8.60606 3.98887 9.30793 4.11724 9.98707C4.24561 10.6662 4.56998 11.2929 5.05034 11.7899L12.0503 18.7899L19.0503 11.7899C19.7123 11.1263 20.084 10.2272 20.084 9.28988C20.084 8.35256 19.7123 7.4535 19.0503 6.78988C18.7231 6.45972 18.3337 6.19765 17.9046 6.0188C17.4755 5.83995 17.0152 5.74787 16.5503 5.74787C16.0855 5.74787 15.6252 5.83995 15.1961 6.0188C14.767 6.19765 14.3776 6.45972 14.0503 6.78988L12.7403 8.08988C12.553 8.27613 12.2995 8.38068 12.0353 8.38068C11.7712 8.38068 11.5177 8.27613 11.3303 8.08988L10.0503 6.82988C9.72292 6.50008 9.33343 6.23838 8.90434 6.05988C8.47526 5.88138 8.01507 5.78962 7.55034 5.78988Z" fill="#F7F7F7"/>
</svg>
