<svg width="25" height="24" viewBox="0 0 25 24" fill="none" xmlns="http://www.w3.org/2000/svg">
<path d="M20.0016 5.39918C19.9439 5.27548 19.8589 5.16643 19.7531 5.0802C19.6472 4.99397 19.5233 4.93279 19.3905 4.90123H19.0283L14.5469 5.53498C14.3118 5.15224 13.9639 4.85177 13.551 4.6749V3H11.7403V4.6749C11.4361 4.80558 11.1659 5.00401 10.9501 5.25506C10.7344 5.50611 10.5789 5.80313 10.4954 6.12346L6.21764 6.73457L6.0592 6.77984H6.01393L5.90076 6.8251H5.8555L5.74233 6.91564H5.71969C5.69706 6.96091 5.65179 6.98354 5.62916 7.00617C5.60653 7.02881 5.60653 7.02881 5.60653 7.05144L5.53862 7.16461C5.53862 7.16758 5.53804 7.17052 5.5369 7.17327C5.53576 7.17602 5.5341 7.17851 5.532 7.18061C5.52989 7.18272 5.5274 7.18438 5.52465 7.18552C5.52191 7.18666 5.51896 7.18724 5.51599 7.18724L1.82669 15.5617C1.78223 15.6773 1.75922 15.8 1.75879 15.9239C1.75879 17.1424 2.24287 18.3111 3.10453 19.1728C3.9662 20.0344 5.13486 20.5185 6.35344 20.5185C7.57202 20.5185 8.74068 20.0344 9.60235 19.1728C10.464 18.3111 10.9481 17.1424 10.9481 15.9239C10.9395 15.7988 10.9088 15.6762 10.8576 15.5617L7.6662 8.3642L10.2012 8.00206L10.767 7.91152C10.969 8.22576 11.2472 8.48387 11.5756 8.66193C11.904 8.83998 12.2721 8.9322 12.6456 8.93004C13.1295 8.93025 13.6004 8.77382 13.988 8.48416C14.3756 8.19449 14.659 7.78715 14.7958 7.32305L17.6703 6.91564L14.66 13.6831C14.6088 13.8055 14.5782 13.9355 14.5695 14.0679C14.5695 15.2865 15.0536 16.4551 15.9152 17.3168C16.7769 18.1785 17.9456 18.6626 19.1641 18.6626C20.3827 18.6626 21.5514 18.1785 22.413 17.3168C23.2747 16.4551 23.7588 15.2865 23.7588 14.0679C23.7582 13.9367 23.7352 13.8066 23.6909 13.6831L20.0016 5.39918ZM6.35344 9.85803L8.63945 15.0185H4.0448L6.35344 9.85803ZM6.35344 18.7078C5.77257 18.7044 5.20683 18.5223 4.73306 18.1862C4.25929 17.8501 3.90046 17.3763 3.70529 16.8292H8.97895C8.78793 17.3745 8.43325 17.8476 7.96335 18.1838C7.49344 18.52 6.93122 18.703 6.35344 18.7078ZM21.4728 13.1626H16.8781L19.1641 8.00206L21.4728 13.1626ZM12.6456 7.11934C12.5596 7.11922 12.4756 7.09333 12.4045 7.04499C12.3334 6.99666 12.2784 6.92812 12.2466 6.84821C12.2148 6.7683 12.2077 6.68071 12.2263 6.59673C12.2448 6.51275 12.288 6.43625 12.3505 6.37711C12.4129 6.31797 12.4916 6.2789 12.5765 6.26495C12.6613 6.25101 12.7484 6.26282 12.8265 6.29886C12.9046 6.33491 12.97 6.39354 13.0144 6.46717C13.0589 6.5408 13.0802 6.62606 13.0757 6.71193C13.0699 6.82202 13.022 6.92567 12.942 7.00149C12.8619 7.07731 12.7559 7.11949 12.6456 7.11934ZM19.1641 16.8519C18.5864 16.8471 18.0241 16.6641 17.5542 16.3278C17.0843 15.9916 16.7297 15.5186 16.5386 14.9733H21.8123C21.6171 15.5204 21.2583 15.9941 20.7845 16.3302C20.3107 16.6663 19.745 16.8484 19.1641 16.8519Z" fill="white"/>
</svg>
