<svg width="25" height="24" viewBox="0 0 25 24" fill="none" xmlns="http://www.w3.org/2000/svg">
<path d="M22.308 15.8452C19.4682 14.0139 16.1989 13.0371 12.858 13.0371H12.7386C9.37388 13.0371 6.10456 14.0139 3.28865 15.8452C2.64433 16.2359 2.28638 16.9197 2.28638 17.6766V19.8499C2.28638 21.0464 3.21706 22.0232 4.38638 22.0232H21.1864C22.3318 22.0232 23.2864 21.0464 23.2864 19.8499V17.6766C23.2864 16.9197 22.9284 16.2359 22.308 15.8452ZM21.3773 19.8499C21.3773 19.972 21.2818 20.0697 21.1864 20.0697H4.38638C4.29092 20.0697 4.19547 19.972 4.19547 19.8499V17.6766C4.19547 17.6034 4.2432 17.5301 4.29092 17.4813C6.82047 15.8452 9.73183 14.9906 12.7148 14.9906H12.8341C15.8171 14.9906 18.7523 15.8452 21.258 17.5057C21.3057 17.5546 21.3534 17.6034 21.3534 17.7011V19.8499H21.3773Z" fill="#F7F7F7"/>
<path d="M8.49097 5.41854V7.8604C8.49097 10.2778 10.4239 12.2558 12.7864 12.2558C15.1489 12.2558 17.0819 10.2778 17.0819 7.8604V5.41854C17.0819 3.0011 15.1489 1.02319 12.7864 1.02319C10.4239 1.02319 8.49097 3.0011 8.49097 5.41854ZM15.1728 5.41854V7.8604C15.1728 9.20343 14.0989 10.3023 12.7864 10.3023C11.4739 10.3023 10.4001 9.20343 10.4001 7.8604V5.41854C10.4001 4.07552 11.4739 2.97668 12.7864 2.97668C14.0989 2.97668 15.1728 4.07552 15.1728 5.41854Z" fill="#F7F7F7"/>
</svg>
