<svg width="24" height="24" viewBox="0 0 24 24" fill="none" xmlns="http://www.w3.org/2000/svg">
<path d="M14.0186 13.299C16.0729 13.299 17.7382 11.6337 17.7382 9.57939C17.7382 7.52512 16.0729 5.8598 14.0186 5.8598C11.9643 5.8598 10.299 7.52512 10.299 9.57939C10.299 11.6337 11.9643 13.299 14.0186 13.299ZM18.366 13.0767L22.7281 17.4388C23.0901 17.8008 23.0918 18.3862 22.7261 18.7519C22.363 19.115 21.7745 19.1153 21.413 18.7538L16.9726 14.3135C16.116 14.8492 15.1034 15.1588 14.0186 15.1588C10.9372 15.1588 8.43919 12.6608 8.43919 9.57939C8.43919 6.49798 10.9372 4 14.0186 4C17.1 4 19.598 6.49798 19.598 9.57939C19.598 10.9036 19.1367 12.12 18.366 13.0767ZM1 7.25465C1 6.74108 1.31596 6.32475 1.69535 6.32475H5.88404C6.26807 6.32475 6.57939 6.7375 6.57939 7.25465C6.57939 7.76821 6.26343 8.18454 5.88404 8.18454H1.69535C1.31132 8.18454 1 7.77179 1 7.25465ZM1 12.834C1 12.3205 1.31596 11.9041 1.69535 11.9041H5.88404C6.26807 11.9041 6.57939 12.3169 6.57939 12.834C6.57939 13.3476 6.26343 13.7639 5.88404 13.7639H1.69535C1.31132 13.7639 1 13.3512 1 12.834ZM1 18.4134C1 17.8999 1.3059 17.4835 1.69655 17.4835H14.9494C15.334 17.4835 15.6459 17.8963 15.6459 18.4134C15.6459 18.927 15.34 19.3433 14.9494 19.3433H1.69655C1.31186 19.3433 1 18.9306 1 18.4134Z" fill="white"/>
</svg>
