<svg width="25" height="24" viewBox="0 0 25 24" fill="none" xmlns="http://www.w3.org/2000/svg">
<path fill-rule="evenodd" clip-rule="evenodd" d="M1.49707 2.10002C1.49707 1.4925 1.98957 1 2.59709 1H5.55308C6.07395 1 6.52343 1.36532 6.62987 1.8752L7.36581 5.40007H21.2974C22.5125 5.40007 23.4974 6.38506 23.4974 7.60011V12.3577C23.4974 13.3992 22.7672 14.2979 21.7477 14.5112L9.79416 17.0113C8.60477 17.26 7.43894 16.4975 7.19028 15.308L4.659 3.20004H2.59709C1.98957 3.20004 1.49707 2.70754 1.49707 2.10002ZM9.11573 13.7815C9.23992 14.3763 9.82287 14.7578 10.4177 14.6335L20.4225 12.5416C20.9322 12.435 21.2974 11.9855 21.2974 11.4648V8.70012C21.2974 8.09261 20.8049 7.60011 20.1974 7.60011H7.82514L9.11573 13.7815Z" fill="#F7F7F7"/>
<path d="M8.4971 23.0001C9.60169 23.0001 10.4971 22.1046 10.4971 21C10.4971 19.8954 9.60169 19 8.4971 19C7.39251 19 6.49707 19.8954 6.49707 21C6.49707 22.1046 7.39251 23.0001 8.4971 23.0001Z" fill="#F7F7F7"/>
<path d="M18.4971 23.0001C19.6017 23.0001 20.4971 22.1046 20.4971 21C20.4971 19.8954 19.6017 19 18.4971 19C17.3925 19 16.4971 19.8954 16.4971 21C16.4971 22.1046 17.3925 23.0001 18.4971 23.0001Z" fill="#F7F7F7"/>
</svg>
