<svg xmlns="http://www.w3.org/2000/svg" width="25" height="24" viewBox="0 0 25 24" fill="none">
<path d="M12.3743 21.23H12.1543C11.9507 21.1978 11.7621 21.1035 11.6143 20.96L3.92426 13.26C2.94484 12.2099 2.4114 10.8206 2.43639 9.38491C2.46137 7.9492 3.04282 6.57928 4.05818 5.56392C5.07353 4.54857 6.44345 3.96712 7.87916 3.94213C9.31487 3.91715 10.7042 4.45059 11.7543 5.43001L12.3743 6.00001L12.9743 5.40001C14.0156 4.36737 15.4227 3.78796 16.8893 3.78796C18.3558 3.78796 19.7629 4.36737 20.8043 5.40001C21.8418 6.43876 22.4245 7.84687 22.4245 9.31501C22.4245 10.7831 21.8418 12.1912 20.8043 13.23L13.1043 20.93C13.0093 21.0269 12.8956 21.1035 12.7701 21.1551C12.6446 21.2066 12.5099 21.2321 12.3743 21.23ZM7.81426 5.79001C7.12314 5.79885 6.44974 6.00982 5.87712 6.39688C5.30449 6.78395 4.8577 7.33017 4.59187 7.96818C4.32603 8.60618 4.25278 9.30805 4.38115 9.98719C4.50952 10.6663 4.8339 11.293 5.31426 11.79L12.3143 18.79L19.3143 11.79C19.9762 11.1264 20.3479 10.2273 20.3479 9.29001C20.3479 8.35269 19.9762 7.45363 19.3143 6.79001C18.987 6.45984 18.5976 6.19777 18.1685 6.01892C17.7394 5.84007 17.2791 5.74799 16.8143 5.74799C16.3494 5.74799 15.8891 5.84007 15.46 6.01892C15.0309 6.19777 14.6415 6.45984 14.3143 6.79001L13.0043 8.09001C12.8169 8.27626 12.5634 8.3808 12.2993 8.3808C12.0351 8.3808 11.7816 8.27626 11.5943 8.09001L10.3143 6.83001C9.98683 6.5002 9.59734 6.2385 9.16826 6.06001C8.73917 5.88151 8.27899 5.78974 7.81426 5.79001Z" fill="#333333"></path></svg>