<svg xmlns="http://www.w3.org/2000/svg" width="25" height="24" viewBox="0 0 25 24" fill="none">
<path d="M11.8162 3V4.84874C11.4825 4.97254 11.1861 5.17991 10.9555 5.451C10.7249 5.7221 10.5677 6.04784 10.4989 6.39706L5.96954 7.04412L5.85399 7.09034H5.83088L5.73845 7.13656C5.73232 7.13656 5.72644 7.13899 5.72211 7.14332C5.71777 7.14766 5.71534 7.15354 5.71534 7.15966L5.6229 7.22899H5.59979L5.53046 7.32143C5.52743 7.32143 5.52442 7.32203 5.52162 7.32319C5.51882 7.32435 5.51627 7.32605 5.51412 7.3282C5.51198 7.33034 5.51027 7.33289 5.50911 7.33569C5.50795 7.3385 5.50735 7.3415 5.50735 7.34454L5.46113 7.41387C5.46113 7.43697 5.46113 7.43698 5.43803 7.43698L1.67122 15.9181C1.64458 16.0083 1.62906 16.1014 1.625 16.1954C1.625 17.3783 2.0949 18.5127 2.93133 19.3491C3.76776 20.1856 4.9022 20.6555 6.08508 20.6555C7.26797 20.6555 8.40241 20.1856 9.23884 19.3491C10.0753 18.5127 10.5452 17.3783 10.5452 16.1954C10.5438 16.0988 10.5201 16.0039 10.4758 15.9181L7.07878 8.29202L9.96744 7.87605L10.7069 7.76051C10.8808 8.08609 11.141 8.35751 11.459 8.54502C11.7769 8.73253 12.1404 8.82888 12.5095 8.82353C12.9789 8.8238 13.4342 8.6635 13.8 8.36924C14.1657 8.07498 14.4197 7.66447 14.52 7.20588L18.0326 6.69748L14.7742 14C14.7272 14.0931 14.7034 14.1962 14.7048 14.3004C14.7048 15.4833 15.1747 16.6177 16.0112 17.4542C16.8476 18.2906 17.982 18.7605 19.1649 18.7605C20.3478 18.7605 21.4822 18.2906 22.3187 17.4542C23.1551 16.6177 23.625 15.4833 23.625 14.3004C23.6226 14.1987 23.6071 14.0977 23.5788 14L19.812 5.54202C19.7572 5.42793 19.6723 5.33102 19.5664 5.26176C19.4604 5.19251 19.3376 5.15357 19.2111 5.14916H19.0725L14.3351 5.84244C14.0883 5.38673 13.6866 5.03429 13.2027 4.84874V3H11.8162ZM6.08508 9.44748L8.76576 15.5021H3.3813L6.08508 9.44748ZM6.08508 19.2689C5.38982 19.267 4.71542 19.0312 4.17047 18.5994C3.62552 18.1677 3.24173 17.5651 3.08088 16.8887H9.06618C8.91001 17.5632 8.53066 18.1652 7.9896 18.5972C7.44853 19.0293 6.77745 19.2659 6.08508 19.2689ZM12.5095 7.43698C12.4226 7.44008 12.3359 7.42564 12.2547 7.39452C12.1735 7.36339 12.0995 7.31622 12.0369 7.25582C11.9743 7.19543 11.9246 7.12304 11.8907 7.04299C11.8567 6.96294 11.8392 6.87687 11.8393 6.78992C11.8393 6.61218 11.9099 6.44172 12.0356 6.31604C12.1613 6.19036 12.3317 6.11975 12.5095 6.11975C12.6872 6.11975 12.8577 6.19036 12.9833 6.31604C13.109 6.44172 13.1796 6.61218 13.1796 6.78992C13.1797 6.87687 13.1622 6.96294 13.1283 7.04299C13.0943 7.12304 13.0446 7.19543 12.982 7.25582C12.9195 7.31622 12.8454 7.36339 12.7642 7.39452C12.683 7.42564 12.5964 7.44008 12.5095 7.43698ZM21.8687 13.6071H16.4842L19.1649 7.52941L21.8687 13.6071ZM19.1649 17.374C18.4725 17.371 17.8015 17.1343 17.2604 16.7023C16.7193 16.2703 16.34 15.6682 16.1838 14.9937H22.1691C22.0083 15.6701 21.6245 16.2727 21.0795 16.7045C20.5346 17.1362 19.8602 17.3721 19.1649 17.374Z" fill="black"></path></svg> 