<svg xmlns="http://www.w3.org/2000/svg" width="24" height="24" viewBox="0 0 24 24" fill="none"><path d="M12.1989 2.73233C13.6766 2.73233 14.8805 3.96844 14.8805 5.48843V11.4618C14.8805 12.9805 13.6778 14.2167 12.1989 14.2167C10.72 14.2167 9.51858 12.9805 9.51858 11.4618V5.48843C9.51858 3.96964 10.7213 2.73233 12.1989 2.73233ZM12.1989 0.97998C9.73003 0.97998 7.73047 2.99944 7.73047 5.48843V11.4618C7.73047 13.9531 9.73125 15.969 12.1989 15.969C14.6666 15.969 16.6674 13.9519 16.6674 11.4618V5.48843C16.6674 2.99944 14.6666 0.97998 12.1989 0.97998Z" fill="#BABAC0"></path><path d="M19.4479 11.8581C19.4479 11.3742 19.0483 10.9825 18.5545 10.9825C18.0619 10.9825 17.6623 11.3754 17.6623 11.8581C17.6623 14.958 15.2227 17.4781 12.2246 17.4781C9.22646 17.4781 6.78689 14.958 6.78689 11.8581C6.78689 11.3742 6.386 10.9825 5.89345 10.9825C5.40089 10.9825 5 11.3754 5 11.8581C5 15.6132 7.76834 18.7178 11.3311 19.167V21.6644C11.3299 22.1483 11.7296 22.5399 12.2234 22.5399C12.7171 22.5399 13.1168 22.1483 13.1168 21.6644V19.167C16.6796 18.7178 19.4479 15.6132 19.4479 11.8581Z" fill="#BABAC0"></path>
</svg>